<svg xmlns="http://www.w3.org/2000/svg" viewBox="0 0 597.3 90.67"><defs><style>.cls-1{fill:#fff;}</style></defs><g id="Calque_2" data-name="Calque 2"><g id="Calque_1-2" data-name="Calque 1"><polygon class="cls-1" points="78.5 1.8 128.5 1.8 128.5 20.9 101 21 101 35.2 124.8 35.1 124.8 53.8 101 53.8 101 69.6 128.5 69.6 128.5 88.6 78.5 88.6 78.5 1.8"/><path class="cls-1" d="M231.1,1.8s-28.9,49-31.7,53.4c-3.3,5.2-10.5,13.4-21.3,13.3-17.7-.3-24.3-12.4-24.3-23.3a23.46,23.46,0,0,1,22.9-23.4c14.7-.3,25.6,13.7,25.6,13.7l11.5-18.4S200.8-.4,176.9.1c-36,.8-46.4,30.8-46.4,44.7,0,29.2,22.6,43.9,41.1,45.6,26.6,2.6,41.2-14.7,41.2-14.7s-.2,0,.7-.1c5.4-.1,19.5.1,19.5.1v13h21.6V1.8Zm2.3,55.6H221.8l11.6-19.6Z"/><polygon class="cls-1" points="276.7 88.7 276.7 22.6 259.3 22.6 259.3 1.8 316.6 1.8 316.6 22.6 299.2 22.6 299.2 88.7 276.7 88.7"/><polygon class="cls-1" points="366.8 55.5 343.7 55.5 343.7 88.7 321.3 88.7 321.3 1.8 343.7 1.8 343.7 34.8 366.8 34.8 366.8 1.8 389.3 1.8 389.3 88.7 366.8 88.7 366.8 55.5"/><polygon class="cls-1" points="396.1 88.7 396.1 1.8 418.5 1.8 418.5 69.5 444.7 69.5 444.7 88.7 396.1 88.7"/><path class="cls-1" d="M445.3,12.8C454,4.3,465,0,477.6,0a45.39,45.39,0,0,1,31.7,12.9,44.35,44.35,0,0,1,13.6,31.8,45.07,45.07,0,0,1-44.5,45.8h-1c-13.1,0-24.3-4.7-33-13.8-8.3-8.7-12.6-19.5-12.6-32.4a43.35,43.35,0,0,1,13.5-31.5m32.1,56.1c12.7,0,23.1-10.1,23.1-24.3a23,23,0,0,0-22.8-23c-13.2,0-23.5,10.2-23.5,23-.1,13.8,11,24.3,23.2,24.3"/><polygon class="cls-1" points="520.8 88.7 520.8 1.8 541.1 1.8 574.8 50.1 574.8 1.8 597.3 1.8 597.3 88.7 577.6 88.7 543.3 40.3 543.3 88.7 520.8 88.7"/><path class="cls-1" d="M0,88.7V1.8H31.4C46,1.8,56.2,3.6,65.7,12.2,74.5,20,79.1,31.4,79.1,45.7c0,13.2-4.5,24.1-13.3,32.3C56,87,47.4,88.8,34.4,88.8ZM56.8,45c0-15.7-8.9-24.5-25.4-24.5H22.5V69.6h9c17.2,0,25.3-7.5,25.3-24.6"/></g></g></svg>